<svg xmlns="http://www.w3.org/2000/svg" height="128" width="640"><path fill="#d35f8d" d="M64 0C28.654 0 0 28.654 0 64s28.654 64 64 64 64-28.654 64-64S99.346 0 64 0zM45.344 32h37.312C85.6 32 88 34.4 88 37.344v5.312C88 45.6 85.6 48 82.656 48h-16v10.656h26.688c2.942 0 5.312 2.4 5.312 5.344v10.656c2.944 0 5.344 2.4 5.344 5.344v10.656C104 93.6 101.6 96 98.656 96h-5.312C90.4 96 88 93.6 88 90.656V80c0-2.943 2.4-5.344 5.344-5.344V64H66.656v10.656C69.6 74.656 72 77.056 72 80v10.656C72 93.6 69.6 96 66.656 96h-5.312C58.4 96 56 93.6 56 90.656V80c0-2.943 2.4-5.344 5.344-5.344V64H34.656v10.656C37.6 74.656 40 77.056 40 80v10.656C40 93.6 37.6 96 34.656 96h-5.312C26.4 96 24 93.6 24 90.656V80c0-2.943 2.4-5.344 5.344-5.344V64c0-2.944 2.368-5.344 5.312-5.344h26.688V48h-16C42.4 48 40 45.6 40 42.656v-5.312C40 34.4 42.4 32 45.344 32z"/><path fill="#8A0" d="M192 0c-35.35 0-64 28.654-64 64s28.65 64 64 64 64-28.654 64-64-28.65-64-64-64zm12.38 31.53c3.89-.047 9.08 2.435 13.5 6.845 5.43 5.433 7.92 12.04 6.37 15.97-.06-.072-.12-.153-.19-.22L201.91 31.97c.73-.29 1.57-.428 2.47-.44zm-3.82 3c1 0 2.02.39 2.78 1.158l1.41 1.406c1.53 1.532 1.54 4.008 0 5.53l-25.03 24.72c-1.54 1.522-4 1.532-5.53 0l-1.41-1.406c-1.53-1.533-1.54-4.01 0-5.532l25.03-24.718c.77-.762 1.75-1.156 2.75-1.157zm7.91 7.908c1-.002 1.98.39 2.75 1.156l1.4 1.406c1.54 1.533 1.55 4.01 0 5.53l-25 24.69c-1.54 1.52-4.02 1.53-5.56 0l-1.37-1.376c-1.54-1.533-1.54-4.01 0-5.532l25-24.718c.77-.762 1.78-1.155 2.78-1.156zm7.91 7.906c.99-.002 1.98.39 2.74 1.156l1.41 1.375c1.53 1.533 1.54 4.04 0 5.563L195.5 83.125c-1.54 1.523-4 1.533-5.53 0l-1.41-1.406c-1.53-1.534-1.54-4.01 0-5.532L213.59 51.5c.77-.76 1.79-1.154 2.79-1.156zM168.69 64.5c.32-.094 6 5.38 11.59 10.97 5.59 5.586 11.06 11.273 10.97 11.592-.19.64-31.49 9.858-31.94 9.407-.45-.453 8.74-31.782 9.38-31.97zm-2.63 18.25c-.2.06-3.11 9.89-2.97 10.03.15.143 9.98-2.736 10.03-2.936.03-.1-1.68-1.903-3.43-3.656-1.76-1.754-3.53-3.468-3.63-3.438z"/><path fill="#F55" d="M320 0c-35.35 0-64 28.654-64 64s28.65 64 64 64 64-28.654 64-64-28.65-64-64-64zm-20 44.03l3.97 3.97-16 16 16 16-3.97 3.97L280 64l20-19.97zm40 0L360 64l-20 19.97-3.97-3.97 16-16-16-16 3.97-3.97zm-13.5.72l5.03 2.53-18.03 35.97-5.03-2.53 18.03-35.97z"/><path fill="#ff7f2a" d="M448 0c-35.35 0-64 28.654-64 64s28.65 64 64 64 64-28.654 64-64-28.65-64-64-64zm-2.03 24l2.91 9.156c2.05.044 4.07.28 6.03.72l5.15-8.157 6.19 2.5-2.06 9.405c1.72 1.055 3.35 2.283 4.84 3.656l8.5-4.53 4.09 5.28-6.46 7.158c.95 1.758 1.74 3.63 2.34 5.593l9.59.314.91 6.625-9.16 2.968c-.05 2.057-.33 4.073-.78 6.03l8.13 5.094-2.53 6.22-9.41-2c-1.07 1.733-2.31 3.38-3.69 4.874l4.5 8.47-5.31 4.124-7.09-6.438c-1.77.964-3.66 1.763-5.63 2.376l-.37 9.622-6.63.94-2.94-9.156c-2.04-.046-4.05-.282-6-.72l-5.15 8.156-6.19-2.5 2.06-9.405c-1.73-1.058-3.35-2.31-4.84-3.687v.03l-8.5 4.532-4.09-5.28 6.46-7.158c-.95-1.76-1.74-3.63-2.34-5.593l-9.59-.314-.91-6.625 9.16-2.968c.05-2.057.33-4.073.78-6.03l-8.13-5.094 2.53-6.22 9.41 2c1.07-1.738 2.3-3.344 3.69-4.843l-.03-.03-4.47-8.47 5.31-4.125 7.09 6.438c1.77-.966 3.66-1.762 5.63-2.376l.37-9.624 6.63-.938zm2.47 16.375c-1.19-.013-2.38.08-3.6.25-12.92 1.826-21.99 13.774-20.25 26.687 1.75 12.914 13.65 21.89 26.57 20.063s21.99-13.774 20.25-26.687c-1.59-11.703-11.51-20.186-22.97-20.313z"/><path fill="#37abc8" d="M576 0c-35.35 0-64 28.654-64 64s28.65 64 64 64 64-28.654 64-64-28.65-64-64-64zm.97 34.875l9.59 2.25 28.53 13.437-9.43-.687-28.69-15zm-2.06.03l-27 14.876-10.35 1.595 25.72-14.47 11.63-2zm-27 15.97l27 13.625-10.94 13.47L536 62.5l11.91-11.625zm56.21.187l11.88 11L588.88 77l-11.91-12.53 27.15-13.408zm-27.15 17.094l11.31 11.532 15.84-9.032-.28 7.25-26.93 15.188.06-24.938zm-2.06.125l.06 24.845-26.38-15.22-.18-6.436 16.06 9.03 10.44-12.22z"/></svg>