<?xml version="1.0" encoding="UTF-8" standalone="no"?>
<svg id="svg2985" xmlns:rdf="http://www.w3.org/1999/02/22-rdf-syntax-ns#" xmlns="http://www.w3.org/2000/svg" height="203" width="378" version="1.1" xmlns:cc="http://creativecommons.org/ns#" xmlns:dc="http://purl.org/dc/elements/1.1/">
	<metadata id="metadata3010">
		<rdf:RDF>
			<cc:Work rdf:about="">
				<dc:format>image/svg+xml</dc:format>
				<dc:type rdf:resource="http://purl.org/dc/dcmitype/StillImage"/>
				<dc:title/>
			</cc:Work>
		</rdf:RDF>
	</metadata>
<!-- First 3 bright Colors --><!-- First 3 middle Colors --><!-- First 3 darken Colors -->
	<g id="g3023" transform="translate(107.85046,0.55099)">
		<g id="g3012" transform="translate(10.71366,0)">
			<path id="path2987" fill="#aec793" d="M140.87,68.829,122.14,36.213,84.662,36.213,103.4,68.829z"/>
			<path id="path2989" fill="#aec793" d="M80.325,36.213,99.061,68.829,61.588,68.829,42.851,36.213z"/>
			<path id="path2991" fill="#aec793" d="M21.859,0.128,59.333,0.128,78.069,32.744,40.596,32.744z"/>
			<path id="path2993" fill="#88ad61" d="M140.87,72.299,103.4,72.299,84.662,104.91,122.14,104.91z"/>
			<path id="path2995" fill="#88ad61" d="M61.762,72.299,99.235,72.299,80.498,104.91,43.025,104.91z"/>
			<path id="path2997" fill="#88ad61" d="M40.943,108.38,78.416,108.38,59.68,141,22.206,141z"/>
			<path id="path2999" fill="#7ea455" d="M39.902,37.948,58.639,70.564,39.902,103.18,21.165,70.564z"/>
			<path id="path3001" fill="#7ea455" d="M18.737,1.8629,37.473,34.479,18.737,67.094-2E-8,34.479,18.737,1.8629z"/>
			<path id="path3003" fill="#7ea455" d="M37.82,106.3,19.084,138.92,0.34697,106.3,19.084,73.687z"/>
		</g>
		<path id="path3962" fill="#7ea455" d="M-88.673,155.56c-5.875,0-10.484,1.77-13.837,5.31-3.34,3.54-5.01,8.43-5.01,14.67,0,6.26,1.67,11.14,5.03,14.64,3.349,3.51,8.05,5.26,14.087,5.26h0.73114l5.9859,7.01h9.0098l-7.3838-8.66c3.305-1.58,5.831-3.93,7.583-7.06,1.765-3.13,2.649-6.86,2.649-11.19,0-6.3-1.664-11.22-4.985-14.72-3.302-3.51-7.922-5.26-13.86-5.26zm167.89,0c-5.861,0-10.494,1.77-13.838,5.31-3.343,3.54-5.035,8.43-5.035,14.67,0,6.22,1.692,11.1,5.035,14.64,3.344,3.55,7.977,5.31,13.838,5.31,5.881,0,10.514-1.76,13.817-5.31,3.344-3.54,5.036-8.42,5.036-14.64,0-6.24-1.692-11.13-5.036-14.67-3.303-3.54-7.936-5.31-13.817-5.31zm39.294,0c-6.1,0-10.93,1.8-14.5,5.39-3.54,3.58-5.337,8.44-5.337,14.59,0,6.14,1.797,11,5.337,14.59,3.57,3.58,8.4,5.36,14.5,5.36,2.08,0,4.03-0.23,5.88-0.72,1.9-0.47,3.71-1.19,5.44-2.13v-7.9723c-1.75,1.2523-3.48,2.1723-5.17,2.7523-1.72,0.59-3.51,0.88-5.36,0.88-3.39,0-6.04-1.13-7.98-3.4-1.91-2.27-2.9-5.39-2.9-9.36,0-3.98,0.99-7.11,2.9-9.38,1.94-2.27,4.59-3.4,7.98-3.4,1.85,0,3.64,0.29,5.36,0.87,1.69,0.59,3.42,1.5,5.17,2.76v-7.9713c-1.73-0.94873-3.54-1.6587-5.44-2.1387-1.85-0.48-3.8-0.72-5.88-0.72zm101.86,0c-5.88,0-10.49,1.77-13.84,5.31-3.34,3.54-4.99,8.43-4.99,14.67,0,6.22,1.65,11.1,4.99,14.64,3.35,3.55,7.96,5.31,13.84,5.31s10.49-1.76,13.84-5.31c3.34-3.54,4.99-8.42,4.99-14.64,0-6.24-1.65-11.13-4.99-14.67-3.35-3.54-7.96-5.31-13.84-5.31zm34.26,0c-4.43,0-7.83,1.04-10.15,3.1-2.38,2.06-3.54,5-3.54,8.83,0,3.06,0.84,5.5,2.51,7.3,1.69,1.81,4.39,3.12,8.04,3.94l3.69,0.86c2.19,0.52,3.68,1.1,4.41,1.75,0.74,0.66,1.12,1.58,1.12,2.79,0,1.34-0.54,2.37-1.61,3.09-1.12,0.72-2.68,1.08-4.73,1.08s-4.15-0.33-6.34-0.98c-2.18-0.67-4.44-1.66-6.79-2.96v8.3705c2.35,0.90948,4.69,1.5995,7.03,2.0695,2.35,0.46,4.69,0.69,6.99,0.69,4.91,0,8.6-1.03,10.95-3.09,2.44-2.09,3.61-5.24,3.61-9.48,0-3.24-0.83-5.73-2.56-7.48-1.71-1.75-4.63-3.06-8.68-3.92l-4.05-0.86c-1.87-0.41-3.24-0.89-3.95-1.46-0.74-0.58-1.08-1.4-1.08-2.43,0-1.37,0.54-2.38,1.63-3.03,1.08-0.66,2.74-0.98,4.99-0.98,1.69,0,3.51,0.24,5.4,0.72,1.93,0.48,3.89,1.19,5.9,2.13v-8.14c-2.25-0.64005-4.47-1.11-6.6-1.42-2.14-0.33-4.19-0.49-6.19-0.49zm-321.74,0.7,0,23.07c0,5.45,1.301,9.51,3.901,12.17,2.603,2.66,6.565,3.99,11.878,3.99,5.336,0,9.298-1.33,11.9-3.99,2.6-2.66,3.901-6.72,3.901-12.17v-23.07h-9.4481v23.069c0.000095,3.1819-0.4959,5.4519-1.4929,6.8319-0.981,1.35-2.6,2.03-4.86,2.03-2.238,0-3.859-0.68-4.858-2.03-0.981-1.38-1.472-3.65-1.472-6.83v-23.07h-9.449zm44.074,0-13.569,38.48,9.501,0,2.326-7,14.768,0,2.3146,7,9.4908,0-13.567-38.48-11.264,0zm16.99,0,0,7.5,12.164,0,0,30.98,9.4461,0,0-30.98,12.146,0,0-7.5-33.756,0zm34.219,0,0,38.48,9.467,0,0-14.57,2.659,0c1.551,0,2.759,0.36,3.666,1.07,0.946,0.7,1.873,2.02,2.779,3.94l4.451,9.56h10.071l-5.1364-10.93c-1.047-2.21-2.095-3.86-3.102-4.94-1.027-1.1-2.175-1.81-3.484-2.12,2.356-0.77,4.109-1.97,5.297-3.61,1.189-1.63,1.753-3.72,1.753-6.26,0-3.68-1.108-6.36-3.364-8.07-2.276-1.7-5.781-2.55-10.595-2.55h-14.462zm105.12,0,0,23.07c0,5.45,1.29,9.51,3.89,12.17,2.59,2.66,6.58,3.99,11.88,3.99,5.34,0,9.33-1.33,11.92-3.99,2.6-2.66,3.87-6.72,3.87-12.17v-23.07h-9.4453v23.069c-0.00469,3.1819-0.46469,5.4519-1.4947,6.8319-0.96,1.35-2.59,2.03-4.85,2.03-2.24,0-3.85-0.68-4.85-2.03-0.99-1.38-1.45-3.65-1.45-6.83v-23.07h-9.4711zm36.44,0,0,38.48,15.69,0c4.85,0,8.52-0.91,10.87-2.73,2.4-1.82,3.59-4.59,3.59-8.3,0-2.42-0.55-4.47-1.67-6.13-1.11-1.67-2.66-2.82-4.72-3.43,1.59-0.64,2.8-1.61,3.65-2.91,0.84-1.33,1.25-2.93,1.25-4.8,0-3.56-1.15-6.15-3.45-7.76-2.27-1.62-5.94-2.42-11.03-2.42h-14.184zm-258.4,6.5c2.892,0,5.128,1.11,6.715,3.34,1.588,2.24,2.379,5.38,2.379,9.44,0,4.04-0.791,7.18-2.379,9.41-1.587,2.23-3.823,3.35-6.715,3.35-2.945,0-5.195-1.1-6.747-3.28-1.553-2.2-2.337-5.35-2.337-9.48,0-4.06,0.802-7.2,2.387-9.44,1.587-2.23,3.817-3.34,6.697-3.34zm167.89,0c2.88,0,5.136,1.11,6.727,3.34,1.592,2.24,2.357,5.38,2.357,9.44,0,4.04-0.765,7.18-2.357,9.41-1.591,2.23-3.847,3.35-6.727,3.35-2.901,0-5.136-1.12-6.727-3.35-1.572-2.23-2.357-5.37-2.357-9.41,0-4.06,0.785-7.2,2.357-9.44,1.591-2.23,3.826-3.34,6.727-3.34zm141.16,0c2.9,0,5.13,1.11,6.73,3.34,1.57,2.24,2.35,5.38,2.35,9.44,0,4.04-0.78,7.18-2.35,9.41-1.6,2.23-3.83,3.35-6.73,3.35s-5.14-1.12-6.71-3.35c-1.59-2.23-2.38-5.37-2.38-9.41,0-4.06,0.79-7.2,2.38-9.44,1.57-2.23,3.81-3.34,6.71-3.34zm-41.19,0.26,5.24,0c1.49,0,2.59,0.35,3.38,1.05,0.76,0.69,1.15,1.69,1.15,3.01,0,1.35-0.39,2.36-1.15,3.05-0.79,0.69-1.89,1.02-3.38,1.02h-5.2418v-8.1329zm-141.54,0.42,3.968,0c1.994,0,3.364,0.39,4.25,1.14,0.846,0.76,1.289,2.01,1.289,3.77,0,1.77-0.443,3.04-1.289,3.81-0.886,0.78-2.256,1.16-4.25,1.16h-3.968v-9.8758zm-55.034,1.84,5.006,15.31-10.033,0,5.027-15.31zm196.57,12.63,5.54,0c1.91,0,3.34,0.42,4.29,1.26,0.98,0.82,1.45,2.08,1.45,3.75,0,1.7-0.51,2.97-1.45,3.81-0.95,0.84-2.4,1.27-4.29,1.27h-5.5418v-10.09z"/>
	</g>
</svg>
