<?xml version="1.0" encoding="UTF-8" standalone="no"?>
<svg id="svg2985" xmlns:rdf="http://www.w3.org/1999/02/22-rdf-syntax-ns#" xmlns="http://www.w3.org/2000/svg" height="141" width="800" version="1.1" xmlns:cc="http://creativecommons.org/ns#" xmlns:dc="http://purl.org/dc/elements/1.1/">
	<metadata id="metadata3010">
		<rdf:RDF>
			<cc:Work rdf:about="">
				<dc:format>image/svg+xml</dc:format>
				<dc:type rdf:resource="http://purl.org/dc/dcmitype/StillImage"/>
				<dc:title/>
			</cc:Work>
		</rdf:RDF>
	</metadata>
<!-- First 3 bright Colors --><!-- First 3 middle Colors --><!-- First 3 darken Colors -->
	<g id="g3017" transform="matrix(0.34697478,0,0,0.34697537,-2.0818487,0.128)">
		<path id="path2987" fill="#aec793" d="M412,198,358,104,250,104,304,198z"/>
		<path id="path2989" fill="#aec793" d="M237.5,104,291.5,198,183.5,198,129.5,104z"/>
		<path id="path2991" fill="#aec793" d="M69,0,177,0,231,94,123,94z"/>
		<path id="path2993" fill="#88ad61" d="M412,208,304,208,250,302,358,302z"/>
		<path id="path2995" fill="#88ad61" d="M184,208,292,208,238,302,130,302z"/>
		<path id="path2997" fill="#88ad61" d="M124,312,232,312,178,406,70,406z"/>
		<path id="path2999" fill="#7ea455" d="M121,109,175,203,121,297,67,203z"/>
		<path id="path3001" fill="#7ea455" d="M60,5,114,99,60,193,6,99,60,5z"/>
		<path id="path3003" fill="#7ea455" d="M115,306,61,400,7,306,61,212z"/>
		<path id="path3962" d="M531.77,104c-29.17,0-52.05,8.78-68.71,26.36-16.56,17.59-24.86,41.87-24.86,72.85,0,31.06,8.3,55.28,24.96,72.69,16.64,17.4,39.98,26.1,69.95,26.1h3.63l29.72,34.79h44.73l-36.66-42.97c16.41-7.85,28.95-19.54,37.65-35.05,8.76-15.54,13.15-34.06,13.15-55.56,0-31.31-8.26-55.72-24.75-73.11-16.39-17.42-39.33-26.1-68.81-26.1zm833.53,0c-29.1,0-52.1,8.78-68.7,26.36-16.6,17.59-25,41.87-25,72.85,0,30.88,8.4,55.1,25,72.69,16.6,17.58,39.6,26.36,68.7,26.36,29.2,0,52.2-8.78,68.6-26.36,16.6-17.59,25-41.81,25-72.69,0-30.98-8.4-55.26-25-72.85-16.4-17.58-39.4-26.36-68.6-26.36zm195.1,0c-30.3,0-54.3,8.93-72,26.77-17.6,17.75-26.5,41.89-26.5,72.44,0,30.46,8.9,54.6,26.5,72.43,17.7,17.75,41.7,26.62,72,26.62,10.3,0,20-1.18,29.2-3.57,9.4-2.38,18.4-5.92,27-10.62v-39.56c-8.7,6.24-17.3,10.77-25.7,13.67-8.5,2.91-17.4,4.35-26.6,4.35-16.8,0-30-5.61-39.6-16.88-9.5-11.25-14.4-26.74-14.4-46.44,0-19.8,4.9-35.33,14.4-46.6,9.6-11.26,22.8-16.88,39.6-16.88,9.2,0,18.1,1.44,26.6,4.35,8.4,2.9,17,7.43,25.7,13.67v-39.56c-8.6-4.7-17.6-8.24-27-10.62-9.2-2.39-18.9-3.57-29.2-3.57zm505.7,0c-29.2,0-52.1,8.78-68.7,26.36-16.6,17.59-24.8,41.87-24.8,72.85,0,30.88,8.2,55.1,24.8,72.69,16.6,17.58,39.5,26.36,68.7,26.36s52.1-8.78,68.7-26.36c16.6-17.59,24.8-41.81,24.8-72.69,0-30.98-8.2-55.26-24.8-72.85-16.6-17.58-39.5-26.36-68.7-26.36zm170.1,0c-22,0-38.9,5.15-50.4,15.38-11.8,10.25-17.6,24.84-17.6,43.85,0,15.2,4.2,27.29,12.5,36.25,8.4,8.96,21.8,15.49,39.9,19.57l18.3,4.25c10.9,2.57,18.3,5.46,21.9,8.7,3.7,3.25,5.6,7.85,5.6,13.82,0,6.66-2.7,11.79-8,15.38-5.6,3.57-13.3,5.33-23.5,5.33s-20.6-1.63-31.5-4.87c-10.8-3.32-22-8.22-33.7-14.7v41.58c11.7,4.52,23.3,7.94,34.9,10.25,11.7,2.29,23.3,3.47,34.7,3.47,24.4,0,42.7-5.15,54.4-15.38,12.1-10.34,17.9-25.99,17.9-47.07,0-16.04-4.1-28.42-12.7-37.12-8.5-8.7-23-15.21-43.1-19.47l-20.1-4.25c-9.3-2.04-16.1-4.43-19.6-7.24-3.7-2.91-5.4-6.94-5.4-12.07,0-6.83,2.7-11.83,8.1-15.07s13.6-4.86,24.8-4.86c8.4,0,17.4,1.19,26.8,3.57,9.6,2.39,19.3,5.91,29.3,10.61v-40.43c-11.2-3.16-22.2-5.51-32.8-7.05-10.6-1.62-20.8-2.43-30.7-2.43zm-1597.4,3.47,0,114.53c0,27.05,6.46,47.2,19.37,60.43,12.92,13.22,32.59,19.83,58.97,19.83,26.49,0,46.16-6.61,59.08-19.83,12.91-13.23,19.37-33.38,19.37-60.43v-114.53h-46.91v114.53c0,15.78-2.46,27.09-7.41,33.92-4.87,6.72-12.91,10.09-24.13,10.09-11.11,0-19.16-3.37-24.12-10.09-4.87-6.83-7.31-18.14-7.31-33.92v-114.53h-46.91zm218.82,0-67.37,191.06,47.17,0,11.55-34.79,73.32,0,11.49,34.79,47.12,0-67.36-191.06-55.92,0zm84.35,0,0,37.23,60.39,0,0,153.83,46.9,0,0-153.83,60.3,0,0-37.23-167.59,0zm169.89,0,0,191.06,47,0,0-72.33,13.2,0c7.7,0,13.7,1.79,18.2,5.28,4.7,3.5,9.3,10.03,13.8,19.57l22.1,47.48h50l-25.5-54.26c-5.2-11.01-10.4-19.17-15.4-24.55-5.1-5.45-10.8-8.97-17.3-10.51,11.7-3.84,20.4-9.81,26.3-17.91s8.7-18.5,8.7-31.12c0-18.26-5.5-31.57-16.7-40.03-11.3-8.45-28.7-12.68-52.6-12.68h-71.8zm521.9,0,0,114.53c0,27.05,6.4,47.2,19.3,60.43,12.9,13.22,32.7,19.83,59,19.83,26.5,0,46.3-6.61,59.2-19.83,12.9-13.23,19.2-33.38,19.2-60.43v-114.53h-46.9v114.53c0,15.78-2.3,27.09-7.4,33.92-4.8,6.72-12.9,10.09-24.1,10.09-11.1,0-19.1-3.37-24.1-10.09-4.9-6.83-7.2-18.14-7.2-33.92v-114.53h-47zm180.9,0,0,191.06,77.9,0c24.1,0,42.3-4.53,54-13.57,11.9-9.05,17.8-22.77,17.8-41.21,0-12.03-2.7-22.17-8.3-30.45-5.5-8.27-13.2-13.97-23.4-17.03,7.9-3.17,13.9-7.95,18.1-14.45,4.2-6.57,6.2-14.52,6.2-23.82,0-17.66-5.7-30.51-17.1-38.52-11.3-8.03-29.5-12.01-54.8-12.01h-70.4zm-1282.9,32.26c14.36,0,25.46,5.52,33.34,16.62,7.88,11.09,11.81,26.71,11.81,46.86,0,20.05-3.93,35.61-11.81,46.7s-18.98,16.62-33.34,16.62c-14.62,0-25.79-5.43-33.5-16.26-7.71-10.91-11.6-26.58-11.6-47.06,0-20.15,3.98-35.77,11.85-46.86,7.88-11.1,18.95-16.62,33.25-16.62zm833.53,0c14.3,0,25.5,5.52,33.4,16.62,7.9,11.09,11.7,26.71,11.7,46.86,0,20.05-3.8,35.61-11.7,46.7s-19.1,16.62-33.4,16.62c-14.4,0-25.5-5.53-33.4-16.62-7.8-11.09-11.7-26.65-11.7-46.7,0-20.15,3.9-35.77,11.7-46.86,7.9-11.1,19-16.62,33.4-16.62zm700.8,0c14.4,0,25.5,5.52,33.4,16.62,7.8,11.09,11.7,26.71,11.7,46.86,0,20.05-3.9,35.61-11.7,46.7-7.9,11.09-19,16.62-33.4,16.62s-25.5-5.53-33.3-16.62c-7.9-11.09-11.8-26.65-11.8-46.7,0-20.15,3.9-35.77,11.8-46.86,7.8-11.1,18.9-16.62,33.3-16.62zm-204.5,1.29,26,0c7.4,0,12.9,1.73,16.8,5.23,3.8,3.4,5.7,8.4,5.7,14.96,0,6.66-1.9,11.71-5.7,15.12-3.9,3.42-9.4,5.08-16.8,5.08h-26v-40.39zm-702.7,2.12,19.7,0c9.9,0,16.7,1.9,21.1,5.65,4.2,3.75,6.4,9.99,6.4,18.69,0,8.79-2.2,15.11-6.4,18.95-4.4,3.84-11.2,5.75-21.1,5.75h-19.7v-49.04zm-273.23,9.12,24.85,76.01-49.81,0,24.96-76.01zm975.93,62.7,27.5,0c9.5,0,16.6,2.08,21.3,6.27,4.9,4.08,7.2,10.31,7.2,18.58,0,8.46-2.5,14.76-7.2,18.96-4.7,4.17-11.9,6.26-21.3,6.26h-27.5v-50.07z" fill="#7ea455"/>
	</g>
</svg>
